<svg width="122" height="122" viewBox="0 0 122 122" fill="none" xmlns="http://www.w3.org/2000/svg">
<g id="clarity:form-line" clip-path="url(#clip0_141_312)">
<path id="Vector" d="M71.1666 40.6667H23.7221C22.8234 40.6667 21.9614 40.3097 21.3258 39.6741C20.6903 39.0386 20.3333 38.1766 20.3333 37.2778V23.7223C20.3333 22.8235 20.6903 21.9615 21.3258 21.326C21.9614 20.6904 22.8234 20.3334 23.7221 20.3334H71.1666C72.0654 20.3334 72.9274 20.6904 73.5629 21.326C74.1984 21.9615 74.5555 22.8235 74.5555 23.7223V37.2778C74.5555 38.1766 74.1984 39.0386 73.5629 39.6741C72.9274 40.3097 72.0654 40.6667 71.1666 40.6667ZM27.111 33.8889H67.7777V26.9078H27.111V33.8889Z" fill="#D6D6D6"/>
<path id="Vector_2" d="M71.1666 47.7156H23.7221C22.8234 47.7156 21.9614 48.0726 21.3258 48.7082C20.6903 49.3437 20.3333 50.2057 20.3333 51.1045V64.3889C20.3333 65.2877 20.6903 66.1497 21.3258 66.7852C21.9614 67.4208 22.8234 67.7778 23.7221 67.7778H62.2199L74.5555 55.2389V51.1045C74.5555 50.2057 74.1984 49.3437 73.5629 48.7082C72.9274 48.0726 72.0654 47.7156 71.1666 47.7156ZM67.7777 61H27.111V54.2222H67.7777V61Z" fill="#D6D6D6"/>
<path id="Vector_3" d="M37.4812 106.784V106.581L38.5656 101.87H13.5556V13.5556H81.3334V48.2917L88.1112 41.8867V10.1667C88.1112 9.26793 87.7541 8.40595 87.1186 7.77041C86.4831 7.13487 85.6211 6.77783 84.7223 6.77783H10.1667C9.26793 6.77783 8.40595 7.13487 7.77041 7.77041C7.13487 8.40595 6.77783 9.26793 6.77783 10.1667V105.056C6.77783 105.954 7.13487 106.816 7.77041 107.452C8.40595 108.087 9.26793 108.445 10.1667 108.445H37.2778C37.3053 107.887 37.3732 107.332 37.4812 106.784Z" fill="#D6D6D6"/>
<path id="Vector_4" d="M74.5554 64.9651L71.9121 67.6423C72.5679 67.5071 73.169 67.1807 73.6394 66.7042C74.1099 66.2277 74.4286 65.6226 74.5554 64.9651Z" fill="#D6D6D6"/>
<path id="Vector_5" d="M20.3333 91.2967C20.3333 92.1954 20.6903 93.0574 21.3258 93.693C21.9614 94.3285 22.8234 94.6855 23.7221 94.6855H40.1244L41.141 90.28L41.5816 88.4161V88.2467H27.111V81.3333H48.5966L55.3744 74.5555H23.7221C22.8234 74.5555 21.9614 74.9126 21.3258 75.5481C20.6903 76.1837 20.3333 77.0456 20.3333 77.9444V91.2967Z" fill="#D6D6D6"/>
<path id="Vector_6" d="M113.494 56.4928L102.073 45.0722C101.566 44.564 100.964 44.1608 100.301 43.8856C99.6385 43.6105 98.9277 43.4689 98.21 43.4689C97.4922 43.4689 96.7815 43.6105 96.1186 43.8856C95.4556 44.1608 94.8535 44.564 94.3466 45.0722L47.885 91.805L44.0555 108.106C43.9122 108.809 43.9089 109.533 44.046 110.238C44.1832 110.942 44.4579 111.613 44.8546 112.211C45.2512 112.809 45.762 113.323 46.3576 113.723C46.9532 114.124 47.6219 114.403 48.3255 114.544C48.6749 114.578 49.0267 114.578 49.3761 114.544C49.7915 114.609 50.2145 114.609 50.63 114.544L67.0661 110.918L113.494 64.3889C114.001 63.8849 114.404 63.2857 114.678 62.6255C114.953 61.9654 115.094 61.2575 115.094 60.5425C115.094 59.8275 114.953 59.1196 114.678 58.4595C114.404 57.7993 114.001 57.2001 113.494 56.6961V56.4928ZM63.6094 104.751L51.2061 107.496L54.2222 95.1939L89.06 59.9833L98.6166 69.54L63.6094 104.751ZM102.446 65.7105L92.8894 56.1539L98.2778 50.8333L107.902 60.4578L102.446 65.7105Z" fill="#D6D6D6"/>
</g>
<defs>
<clipPath id="clip0_141_312">
<rect width="122" height="122" fill="white"/>
</clipPath>
</defs>
</svg>
