<svg width="117" height="123" viewBox="0 0 117 123" fill="none" xmlns="http://www.w3.org/2000/svg">
<g id="consulting-icon 1" clip-path="url(#clip0_141_302)">
<path id="Vector" fill-rule="evenodd" clip-rule="evenodd" d="M75.15 103.34C58.93 103.34 69.61 107.34 71.82 89.67C73.58 75.67 80.07 69.14 87.63 69.98C95.19 69.14 101.68 75.7 103.44 89.67C105.65 107.3 116.33 103.34 100.11 103.34H93.79C93.79 107.27 93 108.23 97.03 110.61C105.59 115.67 115.38 112.28 116.45 122.86H0C1.87 101.27 24.69 114.55 26.45 99.53C26.65 97.84 21.22 93.23 20.29 90.13C18.29 86.99 17.62 82.01 19.78 78.68C20.63 77.37 20.26 75.46 20.26 73.68C20.26 55.63 50.48 55.62 50.48 73.68C50.48 75.97 49.95 77.25 51.19 79.05C53.28 82.05 52.19 87.37 50.45 90.16C49.34 93.42 43.65 97.72 44.02 99.56C46.47 112 60.7 103.9 66.58 114.44C70.08 113.5 74.29 112.96 78.23 110.63C82.17 108.3 81.5 107.29 81.47 103.36H75.15V103.34ZM40.87 0H81.87C84.0909 0.00528157 86.2193 0.889868 87.7897 2.46028C89.3601 4.03069 90.2447 6.15911 90.25 8.38V32.46C90.2447 34.6809 89.3601 36.8093 87.7897 38.3797C86.2193 39.9501 84.0909 40.8347 81.87 40.84H55.35L42.63 51.78C42.4893 51.9025 42.3257 51.9958 42.1487 52.0547C41.9716 52.1135 41.7847 52.1366 41.5987 52.1226C41.4127 52.1087 41.2313 52.0579 41.065 51.9734C40.8987 51.8888 40.7508 51.7721 40.63 51.63C40.3941 51.3518 40.2726 50.9944 40.29 50.63L41 40.84H40.89C38.6691 40.8347 36.5407 39.9501 34.9703 38.3797C33.3999 36.8093 32.5153 34.6809 32.51 32.46V8.38C32.5153 6.16256 33.3971 4.03715 34.9632 2.46731C36.5293 0.897466 38.6526 0.010553 40.87 0ZM94.37 17.68C96.2365 18.0499 97.9172 19.0552 99.126 20.5247C100.335 21.9942 100.997 23.8372 101 25.74V45.74C101.008 47.9176 100.153 50.0095 98.6213 51.5577C97.09 53.1059 95.0075 53.9841 92.83 54H92.53L93.22 64C93.2433 64.3232 93.1392 64.6426 92.93 64.89C92.8246 65.0132 92.6958 65.1144 92.5512 65.1876C92.4065 65.2609 92.2488 65.3049 92.087 65.3169C91.9253 65.329 91.7628 65.309 91.6089 65.258C91.4549 65.2071 91.3126 65.1262 91.19 65.02L78.41 53.67H49.55L57.83 45.24H87.43C89.2865 45.24 91.067 44.5025 92.3797 43.1897C93.6925 41.877 94.43 40.0965 94.43 38.24V18.24C94.43 18.05 94.43 17.87 94.43 17.69L94.37 17.68ZM45 25.33C44.6453 25.3002 44.3147 25.1381 44.0737 24.8761C43.8328 24.614 43.6991 24.271 43.6991 23.915C43.6991 23.559 43.8328 23.216 44.0737 22.9539C44.3147 22.6919 44.6453 22.5298 45 22.5H71.82C72.0158 22.4835 72.2129 22.5079 72.3988 22.5715C72.5848 22.6351 72.7555 22.7367 72.9001 22.8697C73.0448 23.0027 73.1603 23.1642 73.2393 23.3442C73.3183 23.5241 73.3591 23.7185 73.3591 23.915C73.3591 24.1115 73.3183 24.3059 73.2393 24.4858C73.1603 24.6658 73.0448 24.8273 72.9001 24.9603C72.7555 25.0933 72.5848 25.1949 72.3988 25.2585C72.2129 25.3221 72.0158 25.3465 71.82 25.33H45ZM45 15.63C44.626 15.63 44.2674 15.4814 44.003 15.217C43.7386 14.9526 43.59 14.594 43.59 14.22C43.59 13.846 43.7386 13.4874 44.003 13.223C44.2674 12.9586 44.626 12.81 45 12.81H78C78.374 12.81 78.7326 12.9586 78.997 13.223C79.2614 13.4874 79.41 13.846 79.41 14.22C79.41 14.594 79.2614 14.9526 78.997 15.217C78.7326 15.4814 78.374 15.63 78 15.63H45ZM81.88 2.83H40.88C39.4087 2.83525 37.9991 3.42135 36.9578 4.46076C35.9165 5.50016 35.3279 6.90875 35.32 8.38V32.46C35.3357 33.9262 35.9257 35.3277 36.9635 36.3636C38.0012 37.3995 39.4038 37.987 40.87 38H42.59C42.9625 38.0257 43.3095 38.198 43.5551 38.4792C43.8007 38.7604 43.9247 39.1275 43.9 39.5L43.35 47.42L53.84 38.42C53.9712 38.2888 54.1272 38.185 54.2988 38.1146C54.4705 38.0442 54.6545 38.0087 54.84 38.01H81.84C83.3112 38.0021 84.7198 37.4135 85.7592 36.3722C86.7986 35.3309 87.3848 33.9213 87.39 32.45V8.38C87.3847 6.90967 86.7983 5.50107 85.7586 4.46138C84.7189 3.42169 83.3103 2.83527 81.84 2.83H81.88Z" fill="#D6D6D6"/>
</g>
<defs>
<clipPath id="clip0_141_302">
<rect width="116.45" height="122.88" fill="white"/>
</clipPath>
</defs>
</svg>
