<svg width="110" height="110" viewBox="0 0 110 110" fill="none" xmlns="http://www.w3.org/2000/svg">
<g id="ic:sharp-more-time">
<path id="Vector" d="M45.8333 36.6666V64.1666L67.3749 77.4583L71.0416 71.9583L52.7083 60.9583V36.6666H45.8333Z" fill="#D6D6D6"/>
<path id="Vector_2" d="M82.1334 55C82.8243 59.5556 82.5196 64.2068 81.2405 68.6333C79.9613 73.0598 77.738 77.1565 74.7236 80.6413C71.7092 84.1262 67.9754 86.9163 63.7793 88.8196C59.5831 90.723 55.0243 91.6943 50.4167 91.6667C32.5417 91.6667 18.3334 77.4584 18.3334 59.5834C18.3334 41.7084 32.5417 27.5 50.4167 27.5C53.6251 27.5 56.6959 27.9584 59.5834 28.8292V19.3875C56.6501 18.7 53.5792 18.3334 50.4167 18.3334C27.5001 18.3334 9.16675 36.6667 9.16675 59.5834C9.16675 82.5 27.5001 100.833 50.4167 100.833C56.227 100.857 61.9762 99.6488 67.2849 97.2872C72.5935 94.9255 77.3408 91.4646 81.2133 87.133C85.0858 82.8013 87.9953 77.6975 89.7499 72.1585C91.5044 66.6195 92.064 60.7713 91.3917 55H82.1334Z" fill="#D6D6D6"/>
<path id="Vector_3" d="M91.6667 22.9166V9.16663H82.5V22.9166H68.75V32.0833H82.5V45.8333H91.6667V32.0833H105.417V22.9166H91.6667Z" fill="#D6D6D6"/>
</g>
</svg>
