<svg width="120" height="120" viewBox="0 0 120 120" fill="none" xmlns="http://www.w3.org/2000/svg">
<g id="mdi:account-service">
<path id="Vector" d="M114.5 106L94 85.5C96 80.5 95 74 90.5 70C86 65.5 79.5 64.5 74 67L83.5 76.5L76.5 83.5L66.5 73.5C64 79 65 85.5 69.5 90.5C74 95 80 96 85 94L105.5 114.5C106.5 115.5 108 115.5 108.5 114.5L113.5 109.5C115 108 115 106.5 114.5 106ZM65 100H10V90C10 79 28 70 50 70C52.5 70 55 70 57 70.5C55.5 73.5 55 76.5 55 80C55 88 59 95.5 65 100ZM50 20C39 20 30 29 30 40C30 51 39 60 50 60C61 60 70 51 70 40C70 29 61 20 50 20Z" fill="#D6D6D6"/>
</g>
</svg>
