<svg width="104" height="104" viewBox="0 0 104 104" fill="none" xmlns="http://www.w3.org/2000/svg">
<g id="mingcute:service-fill" clip-path="url(#clip0_141_368)">
<g id="Group">
<path id="Vector" d="M21.6667 39C21.6667 30.9551 24.8626 23.2397 30.5512 17.5511C36.2398 11.8624 43.9552 8.66663 52.0001 8.66663C60.045 8.66663 67.7604 11.8624 73.449 17.5511C79.1376 23.2397 82.3334 30.9551 82.3334 39V43.485C89.6827 44.538 95.3334 50.8603 95.3334 58.5V59.5833C95.3334 67.275 88.6991 74.0176 80.8947 73.658C77.6881 82.8446 69.5327 89.037 60.7317 90.6056C58.6951 91.351 56.2857 91 54.1667 91C52.4428 91 50.7895 90.3151 49.5705 89.0961C48.3516 87.8772 47.6667 86.2239 47.6667 84.5C47.6667 82.776 48.3516 81.1227 49.5705 79.9038C50.7895 78.6848 52.4428 78 54.1667 78C57.6031 78 61.4077 77.5016 63.7304 80.639C69.3464 77.9653 73.6667 72.319 73.6667 65V39C73.6667 33.2536 71.384 27.7426 67.3207 23.6793C63.2574 19.616 57.7464 17.3333 52.0001 17.3333C46.2537 17.3333 40.7427 19.616 36.6794 23.6793C32.6161 27.7426 30.3334 33.2536 30.3334 39V66.0833C30.3334 68.0945 29.5345 70.0234 28.1123 71.4455C26.6902 72.8677 24.7613 73.6666 22.7501 73.6666C19.0149 73.6666 15.4328 72.1828 12.7917 69.5417C10.1505 66.9006 8.66675 63.3184 8.66675 59.5833V58.5C8.66581 54.8522 9.97957 51.3264 12.3672 48.5686C14.7549 45.8109 18.0564 44.0061 21.6667 43.485V39Z" fill="#D6D6D6"/>
</g>
</g>
<defs>
<clipPath id="clip0_141_368">
<rect width="104" height="104" fill="white"/>
</clipPath>
</defs>
</svg>
