<svg width="106" height="58" viewBox="0 0 106 58" fill="none" xmlns="http://www.w3.org/2000/svg">
<g id="Vector" opacity="0.8">
<path d="M130.627 4.14286C130.627 6.43089 132.501 8.28571 134.813 8.28571C137.126 8.28571 139 6.43089 139 4.14286C139 1.85482 137.126 0 134.813 0C132.501 0 130.627 1.85482 130.627 4.14286Z" fill="url(#paint0_linear_124_68)"/>
<path d="M21.7711 4.14286C21.7711 6.43089 23.6456 8.28571 25.9578 8.28571C28.2701 8.28571 30.1446 6.43089 30.1446 4.14286C30.1446 1.85482 28.2701 0 25.9578 0C23.6456 0 21.7711 1.85482 21.7711 4.14286Z" fill="url(#paint1_linear_124_68)"/>
<path d="M108.855 4.14286C108.855 6.43089 110.73 8.28571 113.042 8.28571C115.354 8.28571 117.229 6.43089 117.229 4.14286C117.229 1.85482 115.354 0 113.042 0C110.73 0 108.855 1.85482 108.855 4.14286Z" fill="url(#paint2_linear_124_68)"/>
<path d="M-3.36143e-07 4.14286C-3.36143e-07 6.43089 1.87447 8.28571 4.18674 8.28571C6.49902 8.28571 8.3735 6.43089 8.3735 4.14286C8.3735 1.85482 6.49902 0 4.18674 0C1.87447 0 -3.36143e-07 1.85482 -3.36143e-07 4.14286Z" fill="url(#paint3_linear_124_68)"/>
<path d="M87.0843 4.14286C87.0843 6.43089 88.9588 8.28571 91.2711 8.28571C93.5834 8.28571 95.4578 6.43089 95.4578 4.14286C95.4578 1.85482 93.5834 0 91.2711 0C88.9588 0 87.0843 1.85482 87.0843 4.14286Z" fill="url(#paint4_linear_124_68)"/>
<path d="M65.3133 4.14286C65.3133 6.43089 67.1877 8.28571 69.5 8.28571C71.8123 8.28571 73.6867 6.43089 73.6867 4.14286C73.6867 1.85482 71.8123 0 69.5 0C67.1877 0 65.3133 1.85482 65.3133 4.14286Z" fill="url(#paint5_linear_124_68)"/>
<path d="M43.5422 4.14286C43.5422 6.43089 45.4166 8.28571 47.7289 8.28571C50.0412 8.28571 51.9157 6.43089 51.9157 4.14286C51.9157 1.85482 50.0412 0 47.7289 0C45.4166 0 43.5422 1.85482 43.5422 4.14286Z" fill="url(#paint6_linear_124_68)"/>
<path d="M130.627 29C130.627 31.288 132.501 33.1429 134.813 33.1429C137.126 33.1429 139 31.288 139 29C139 26.712 137.126 24.8571 134.813 24.8571C132.501 24.8571 130.627 26.712 130.627 29Z" fill="url(#paint7_linear_124_68)"/>
<path d="M21.7711 29C21.7711 31.288 23.6456 33.1429 25.9578 33.1429C28.2701 33.1429 30.1446 31.288 30.1446 29C30.1446 26.712 28.2701 24.8571 25.9578 24.8571C23.6456 24.8571 21.7711 26.712 21.7711 29Z" fill="url(#paint8_linear_124_68)"/>
<path d="M108.855 29C108.855 31.288 110.73 33.1429 113.042 33.1429C115.354 33.1429 117.229 31.288 117.229 29C117.229 26.712 115.354 24.8571 113.042 24.8571C110.73 24.8571 108.855 26.712 108.855 29Z" fill="url(#paint9_linear_124_68)"/>
<path d="M-3.36143e-07 29C-3.36143e-07 31.288 1.87447 33.1429 4.18674 33.1429C6.49902 33.1429 8.3735 31.288 8.3735 29C8.3735 26.712 6.49902 24.8571 4.18674 24.8571C1.87447 24.8571 -3.36143e-07 26.712 -3.36143e-07 29Z" fill="url(#paint10_linear_124_68)"/>
<path d="M87.0843 29C87.0843 31.288 88.9588 33.1429 91.2711 33.1429C93.5834 33.1429 95.4578 31.288 95.4578 29C95.4578 26.712 93.5834 24.8571 91.2711 24.8571C88.9588 24.8571 87.0843 26.712 87.0843 29Z" fill="url(#paint11_linear_124_68)"/>
<path d="M65.3133 29C65.3133 31.288 67.1877 33.1429 69.5 33.1429C71.8123 33.1429 73.6867 31.288 73.6867 29C73.6867 26.712 71.8123 24.8571 69.5 24.8571C67.1877 24.8571 65.3133 26.712 65.3133 29Z" fill="url(#paint12_linear_124_68)"/>
<path d="M43.5422 29C43.5422 31.288 45.4166 33.1429 47.7289 33.1429C50.0412 33.1429 51.9157 31.288 51.9157 29C51.9157 26.712 50.0412 24.8571 47.7289 24.8571C45.4166 24.8571 43.5422 26.712 43.5422 29Z" fill="url(#paint13_linear_124_68)"/>
<path d="M130.627 53.8571C130.627 56.1452 132.501 58 134.813 58C137.126 58 139 56.1452 139 53.8571C139 51.5691 137.126 49.7143 134.813 49.7143C132.501 49.7143 130.627 51.5691 130.627 53.8571Z" fill="url(#paint14_linear_124_68)"/>
<path d="M21.7711 53.8571C21.7711 56.1452 23.6456 58 25.9578 58C28.2701 58 30.1446 56.1452 30.1446 53.8571C30.1446 51.5691 28.2701 49.7143 25.9578 49.7143C23.6456 49.7143 21.7711 51.5691 21.7711 53.8571Z" fill="url(#paint15_linear_124_68)"/>
<path d="M108.855 53.8571C108.855 56.1452 110.73 58 113.042 58C115.354 58 117.229 56.1452 117.229 53.8571C117.229 51.5691 115.354 49.7143 113.042 49.7143C110.73 49.7143 108.855 51.5691 108.855 53.8571Z" fill="url(#paint16_linear_124_68)"/>
<path d="M-3.36143e-07 53.8571C-3.36143e-07 56.1452 1.87447 58 4.18674 58C6.49902 58 8.3735 56.1452 8.3735 53.8571C8.3735 51.5691 6.49902 49.7143 4.18674 49.7143C1.87447 49.7143 -3.36143e-07 51.5691 -3.36143e-07 53.8571Z" fill="url(#paint17_linear_124_68)"/>
<path d="M87.0843 53.8571C87.0843 56.1452 88.9588 58 91.2711 58C93.5834 58 95.4578 56.1452 95.4578 53.8571C95.4578 51.5691 93.5834 49.7143 91.2711 49.7143C88.9588 49.7143 87.0843 51.5691 87.0843 53.8571Z" fill="url(#paint18_linear_124_68)"/>
<path d="M65.3133 53.8571C65.3133 56.1452 67.1877 58 69.5 58C71.8123 58 73.6867 56.1452 73.6867 53.8571C73.6867 51.5691 71.8123 49.7143 69.5 49.7143C67.1877 49.7143 65.3133 51.5691 65.3133 53.8571Z" fill="url(#paint19_linear_124_68)"/>
<path d="M43.5422 53.8571C43.5422 56.1452 45.4166 58 47.7289 58C50.0412 58 51.9157 56.1452 51.9157 53.8571C51.9157 51.5691 50.0412 49.7143 47.7289 49.7143C45.4166 49.7143 43.5422 51.5691 43.5422 53.8571Z" fill="url(#paint20_linear_124_68)"/>
</g>
<defs>
<linearGradient id="paint0_linear_124_68" x1="0" y1="29" x2="139" y2="29" gradientUnits="userSpaceOnUse">
<stop stop-color="#5177BF"/>
<stop offset="1" stop-color="#044CD3"/>
</linearGradient>
<linearGradient id="paint1_linear_124_68" x1="0" y1="29" x2="139" y2="29" gradientUnits="userSpaceOnUse">
<stop stop-color="#5177BF"/>
<stop offset="1" stop-color="#044CD3"/>
</linearGradient>
<linearGradient id="paint2_linear_124_68" x1="0" y1="29" x2="139" y2="29" gradientUnits="userSpaceOnUse">
<stop stop-color="#5177BF"/>
<stop offset="1" stop-color="#044CD3"/>
</linearGradient>
<linearGradient id="paint3_linear_124_68" x1="0" y1="29" x2="139" y2="29" gradientUnits="userSpaceOnUse">
<stop stop-color="#5177BF"/>
<stop offset="1" stop-color="#044CD3"/>
</linearGradient>
<linearGradient id="paint4_linear_124_68" x1="0" y1="29" x2="139" y2="29" gradientUnits="userSpaceOnUse">
<stop stop-color="#5177BF"/>
<stop offset="1" stop-color="#044CD3"/>
</linearGradient>
<linearGradient id="paint5_linear_124_68" x1="0" y1="29" x2="139" y2="29" gradientUnits="userSpaceOnUse">
<stop stop-color="#5177BF"/>
<stop offset="1" stop-color="#044CD3"/>
</linearGradient>
<linearGradient id="paint6_linear_124_68" x1="0" y1="29" x2="139" y2="29" gradientUnits="userSpaceOnUse">
<stop stop-color="#5177BF"/>
<stop offset="1" stop-color="#044CD3"/>
</linearGradient>
<linearGradient id="paint7_linear_124_68" x1="0" y1="29" x2="139" y2="29" gradientUnits="userSpaceOnUse">
<stop stop-color="#5177BF"/>
<stop offset="1" stop-color="#044CD3"/>
</linearGradient>
<linearGradient id="paint8_linear_124_68" x1="0" y1="29" x2="139" y2="29" gradientUnits="userSpaceOnUse">
<stop stop-color="#5177BF"/>
<stop offset="1" stop-color="#044CD3"/>
</linearGradient>
<linearGradient id="paint9_linear_124_68" x1="0" y1="29" x2="139" y2="29" gradientUnits="userSpaceOnUse">
<stop stop-color="#5177BF"/>
<stop offset="1" stop-color="#044CD3"/>
</linearGradient>
<linearGradient id="paint10_linear_124_68" x1="0" y1="29" x2="139" y2="29" gradientUnits="userSpaceOnUse">
<stop stop-color="#5177BF"/>
<stop offset="1" stop-color="#044CD3"/>
</linearGradient>
<linearGradient id="paint11_linear_124_68" x1="0" y1="29" x2="139" y2="29" gradientUnits="userSpaceOnUse">
<stop stop-color="#5177BF"/>
<stop offset="1" stop-color="#044CD3"/>
</linearGradient>
<linearGradient id="paint12_linear_124_68" x1="0" y1="29" x2="139" y2="29" gradientUnits="userSpaceOnUse">
<stop stop-color="#5177BF"/>
<stop offset="1" stop-color="#044CD3"/>
</linearGradient>
<linearGradient id="paint13_linear_124_68" x1="0" y1="29" x2="139" y2="29" gradientUnits="userSpaceOnUse">
<stop stop-color="#5177BF"/>
<stop offset="1" stop-color="#044CD3"/>
</linearGradient>
<linearGradient id="paint14_linear_124_68" x1="0" y1="29" x2="139" y2="29" gradientUnits="userSpaceOnUse">
<stop stop-color="#5177BF"/>
<stop offset="1" stop-color="#044CD3"/>
</linearGradient>
<linearGradient id="paint15_linear_124_68" x1="0" y1="29" x2="139" y2="29" gradientUnits="userSpaceOnUse">
<stop stop-color="#5177BF"/>
<stop offset="1" stop-color="#044CD3"/>
</linearGradient>
<linearGradient id="paint16_linear_124_68" x1="0" y1="29" x2="139" y2="29" gradientUnits="userSpaceOnUse">
<stop stop-color="#5177BF"/>
<stop offset="1" stop-color="#044CD3"/>
</linearGradient>
<linearGradient id="paint17_linear_124_68" x1="0" y1="29" x2="139" y2="29" gradientUnits="userSpaceOnUse">
<stop stop-color="#5177BF"/>
<stop offset="1" stop-color="#044CD3"/>
</linearGradient>
<linearGradient id="paint18_linear_124_68" x1="0" y1="29" x2="139" y2="29" gradientUnits="userSpaceOnUse">
<stop stop-color="#5177BF"/>
<stop offset="1" stop-color="#044CD3"/>
</linearGradient>
<linearGradient id="paint19_linear_124_68" x1="0" y1="29" x2="139" y2="29" gradientUnits="userSpaceOnUse">
<stop stop-color="#5177BF"/>
<stop offset="1" stop-color="#044CD3"/>
</linearGradient>
<linearGradient id="paint20_linear_124_68" x1="0" y1="29" x2="139" y2="29" gradientUnits="userSpaceOnUse">
<stop stop-color="#5177BF"/>
<stop offset="1" stop-color="#044CD3"/>
</linearGradient>
</defs>
</svg>
