<svg width="48" height="40" viewBox="0 0 48 40" fill="none" xmlns="http://www.w3.org/2000/svg">
<path id="&#226;&#128;&#156;" d="M27.2875 0.115384L27.3493 10.9477C27.3816 16.6254 28.0805 21.2782 29.4459 24.9062C30.8612 28.534 33.2195 31.6085 36.5211 34.1297C39.8226 36.651 43.5676 38.323 47.7559 39.1459L47.7065 30.48C44.7584 28.8034 43.0771 26.5468 42.6625 23.7103L47.6678 23.6817L47.5328 0L27.2875 0.115384ZM0.244019 0.269513L0.305755 11.1019C0.338114 16.7795 1.03701 21.4323 2.40243 25.0604C3.81766 28.6881 6.17604 31.7626 9.47757 34.2838C12.8289 36.8048 16.5739 38.4769 20.7124 39.3L20.663 30.6341C17.7149 28.9575 16.0336 26.701 15.619 23.8644L20.6243 23.8359L20.4893 0.154129L0.244019 0.269513Z" fill="#0871BE"/>
</svg>
